# xmcd CD database file
#
# Track frame offsets:
#	150
#	12407
#	26745
#	40345
#	53795
#	70682
#	87452
#	100747
#	116105
#	127747
#	142507
#	164017
#	182177
#	201560
#
# Disc length: 2901 seconds
#
# Revision: 3
# Processed by: cddbd v1.5.2PL0 Copyright (c) Steve Scherf et al.
# Submitted via: CDex 1.70beta2
#
DISCID=c20b530e
DTITLE=Yoakam, Dwight (USA-cty-90) - If There Was A Way
DYEAR=1990
DGENRE=Country
TTITLE0=The Distance Between You And Me
TTITLE1=The Heart That You Own
TTITLE2=Takes A Lot To Rock You
TTITLE3=Nothing's Changed Here
TTITLE4=Sad Sad Music
TTITLE5=Since I Started Drinkin' Again
TTITLE6=If There Was A Way
TTITLE7=Turn It On Turn It Up Turn Me Loose
TTITLE8=It Only Hurts When I Cry
TTITLE9=& Patty Loveless - Send A Message To My Heart
TTITLE10=Don't Need It Done
TTITLE11=You're The One
TTITLE12=Dangerous Man
TTITLE13=Let's Work Together
EXTD=YEAR: 1990
EXTT0=
EXTT1=
EXTT2=
EXTT3=
EXTT4=
EXTT5=
EXTT6=
EXTT7=
EXTT8=
EXTT9=
EXTT10=
EXTT11=
EXTT12=
EXTT13=
PLAYORDER=
